<?xml version="1.0" encoding="UTF-8"?>
<svg xmlns="http://www.w3.org/2000/svg" viewBox="0 0 504.1 419.62">
  <defs>
    <style>
      .cls-1 {
        fill: none;
      }

      .cls-2 {
        fill: #f79c87;
      }

      .cls-3 {
        fill: #f8a898;
      }

      .cls-4 {
        fill: #f0efee;
      }

      .cls-5 {
        fill: #b93b3d;
      }

      .cls-6 {
        fill: #d04446;
      }

      .cls-7 {
        fill: #cbc7ce;
      }

      .cls-8 {
        fill: #d2ced4;
      }

      .cls-9 {
        fill: #e04449;
      }

      .cls-10 {
        fill: #e28e80;
      }

      .cls-11 {
        fill: #dfdbe1;
      }

      .cls-12 {
        fill: #dad6d2;
      }

      .cls-12, .cls-13 {
        mix-blend-mode: multiply;
      }

      .cls-13 {
        fill: #f9bbb5;
      }

      .cls-14 {
        isolation: isolate;
      }
    </style>
  </defs>
  <g class="cls-14">
    <g id="Capa_1" data-name="Capa 1">
      <g>
        <path class="cls-1" d="M152.72,57.84c2.55-1.12,5.56-2.1,9.13-2.9-3.46,.68-6.49,1.67-9.13,2.9Z"/>
        <path class="cls-1" d="M341.97,54.94c3.55,.8,6.56,1.78,9.1,2.89-2.64-1.22-5.66-2.21-9.1-2.89Z"/>
        <path class="cls-7" d="M348.57,366.12c23.63,2.03,34.19,26.37,40.16,53.49h4.65c-6.18-32.02-17.73-66.28-55.99-66.44,1.71,1.47,6.04,4.08,11.18,12.95Z"/>
        <path class="cls-7" d="M388.72,419.62c-5.97-27.13-16.52-51.46-40.16-53.49,5.34,9.2,11.57,25.12,16.66,53.49h23.5Z"/>
        <path class="cls-3" d="M267.42,409.55c62.49,0,45.11-60.19,50.17-59.26-3.01,0-50.8-8.52-47.7-61.84,0,.1-.02,.21-.03,.31-10.46,.58-22.46-.43-33.31,1.3-15.86,2.53-29.87,12.1-39.34,20.26-9.96,23.98-25.5,34.52-28.09,34.52,0,0,35.82,64.72,98.3,64.72Z"/>
        <path class="cls-3" d="M205.62,262.34c0-.42-.02-.85-.03-1.27,.01,.42,.03,.85,.03,1.27Z"/>
        <path class="cls-3" d="M317.59,350.29c.35,.06,.7,.13,1.06,.19-.35-.11-.7-.19-1.06-.19Z"/>
        <path class="cls-3" d="M205.6,268.33c0-.29,.01-.58,.02-.87,0,.29,0,.58-.02,.87Z"/>
        <path class="cls-3" d="M205.17,276.42s0-.03,0-.05c0,.02,0,.03,0,.05Z"/>
        <path class="cls-3" d="M205.35,273.89c0-.14,.02-.28,.03-.43,0,.14-.02,.28-.03,.43Z"/>
        <path class="cls-3" d="M205.63,264.32c0,.35,0,.71,0,1.06,0-.35,0-.71,0-1.06Z"/>
        <path class="cls-3" d="M205.5,271.17c0-.22,.02-.45,.03-.68,0,.23-.02,.45-.03,.68Z"/>
        <path class="cls-3" d="M205.49,258.29c.01,.31,.03,.62,.04,.92-.01-.31-.03-.62-.04-.92,0,0,0,0,0,0Z"/>
        <path class="cls-12" d="M205.59,261.07c-.02-.62-.03-1.23-.05-1.85,.02,.62,.04,1.24,.05,1.85Z"/>
        <path class="cls-12" d="M205.64,265.38c0,.7-.01,1.38-.02,2.07,.01-.69,.02-1.37,.02-2.07Z"/>
        <path class="cls-12" d="M205.38,273.46c.05-.76,.09-1.52,.12-2.29-.03,.77-.07,1.53-.12,2.29Z"/>
        <path class="cls-12" d="M269.89,288.45c.15-1.7,.34-3.45,.57-5.23-.04,.01-.09,.03-.13,.04-.2,1.78-.35,3.51-.45,5.19Z"/>
        <path class="cls-12" d="M205.53,270.49c.03-.72,.05-1.44,.07-2.17-.02,.73-.04,1.45-.07,2.17Z"/>
        <path class="cls-12" d="M205.63,264.32c0-.66,0-1.31-.02-1.98,.01,.67,.01,1.32,.02,1.98Z"/>
        <path class="cls-12" d="M197.16,310.36s.03-.03,.05-.04c3.84-9.25,6.84-20.49,7.96-33.9-1.12,13.43-4.15,24.68-8.01,33.94Z"/>
        <path class="cls-12" d="M205.17,276.37c.07-.82,.13-1.65,.18-2.48-.05,.83-.11,1.66-.18,2.48Z"/>
        <path class="cls-10" d="M269.86,288.76c0-.1,.02-.2,.03-.31,.1-1.69,.24-3.42,.45-5.19-4.07,1.22-8.07,1.69-11.98,1.51-7.52,.35-15.39-1.67-23.43-6.95-9.04-6.54-17.96-14.21-25.08-22.89,.26,4.34,.23,7.48,.23,7.48-1.52-1.34-3.05-2.71-4.58-4.11,.01,.31,.03,.62,.04,.92,.02,.62,.04,1.24,.05,1.85,.01,.42,.03,.85,.03,1.27,.01,.67,.01,1.32,.02,1.98,0,.35,0,.71,0,1.06,0,.7-.01,1.38-.02,2.07,0,.29,0,.58-.02,.87-.02,.73-.04,1.45-.07,2.17,0,.23-.02,.45-.03,.68-.03,.77-.07,1.53-.12,2.29,0,.14-.02,.28-.03,.43-.05,.83-.11,1.66-.18,2.48,0,.02,0,.03,0,.05-1.12,13.4-4.12,24.65-7.96,33.9,9.47-8.16,23.48-17.74,39.34-20.26,10.85-1.73,22.86-.71,33.31-1.3Z"/>
        <path class="cls-3" d="M201,225.96c-.29-1.29-.6-2.59-.92-3.91l2.98-3.72c-4.56-2.52-4.33,6.04-4.33,6.04,0,0,1.18,1.36,2.6,3.05-.03-.12-.05-.23-.07-.35-.08-.37-.16-.74-.24-1.12Z"/>
        <path class="cls-3" d="M320.21,229.51c-.4,1.83-.95,3.63-1.56,5.4-4.7,3.06-10.64,3.97-17.05,.42-18.01-9.97,5.19-29.97,18.97-28.26-.91-4.06-2.26-7.66-4.22-10.32-3.42-4.63-4.79-11.57-6.29-18.69-9.04-3.33-15.68-6.5-24.23-.16,8.55-6.34,15.19-3.17,24.23,.16-2.8-13.32-6.05-27.27-24.06-27.9-31.53-1.11-51.12-16.29-52.23-10.94-4.94,23.65-26.53,29.73-27.02,43.41-.36,10.11,.41,19.21,1.09,26.13,.29-.21,.59-.4,.92-.58,5.31-2.87,13.68-.43,20.11,4.16,17.34,2.47,38,4.95,48.57,11.46-1.06-3.99-2.72-8.54-1.57-15.49-1.16,6.95,.5,11.5,1.57,15.49,5.47,3.37,8.24,7.82,6.43,13.92-.02,.07-.05,.15-.07,.22-.08,.26-.16,.52-.26,.79-.13,.35-.27,.71-.44,1.08-.57,1.29-1.1,2.55-1.63,3.8-6.27,15.05-9.52,28.19-11.01,39.59,3.72-1.13,7.5-2.9,11.33-5.4,17.38-12.58,34.33-29.31,38.81-49.46,.66-2.96,1.17-5.49,1.57-7.8-.01-.3-.03-.59-.04-.89-.45,2.84-1.06,5.98-1.92,9.84Zm-87.51-35.45c-4.62,0-5.37,4.12-5.37,4.12,0,0,.75-4.12,5.37-4.12s5.92,4.12,5.92,4.12c0,0-1.29-4.12-5.92-4.12Zm-10.58-15.32c10.01-3.53,19.35-4.94,28.47,1.83-9.12-6.77-18.46-5.35-28.47-1.83Zm57.15,17.73c1.23-5.6,4.37-10.15,7.7-14.7-3.33,4.55-6.47,9.1-7.7,14.7Zm20.85-2.41c4.62,0,5.37,4.12,5.37,4.12,0,0-.75-4.12-5.37-4.12s-5.92,4.12-5.92,4.12c0,0,1.29-4.12,5.92-4.12Z"/>
        <path class="cls-3" d="M201.24,227.08c.03,.12,.05,.23,.07,.35,0,0,0,0,0,0-.03-.12-.05-.23-.08-.35Z"/>
        <polygon class="cls-3" points="203.05 218.33 203.05 218.33 200.07 222.06 203.05 218.33"/>
        <path class="cls-3" d="M232.98,215.87c15.66,3.26,30.9,7.35,44.76,13.37,.19-.21,.35-.44,.48-.68,0-1.57-.34-3.12-.77-4.75-10.57-6.51-31.23-8.99-48.57-11.46,1.5,1.07,2.89,2.26,4.11,3.52Z"/>
        <path class="cls-3" d="M200.07,222.06c.32,1.32,.63,2.62,.92,3.91-.29-1.29-.6-2.59-.92-3.91Z"/>
        <path class="cls-3" d="M283.1,239.82c-.57,1.28-1.11,2.55-1.63,3.8,.53-1.26,1.06-2.52,1.63-3.8Z"/>
        <path class="cls-3" d="M283.8,237.95c-.08,.26-.16,.52-.26,.79,.1-.27,.18-.53,.26-.79Z"/>
        <path class="cls-3" d="M277.74,229.24c2.19,.95,4.36,1.93,6.47,2.99,.33,1.67,.25,3.5-.34,5.5,1.81-6.1-.95-10.55-6.43-13.92,.43,1.63,.77,3.18,.77,4.75-.12,.24-.29,.46-.48,.68Z"/>
        <path class="cls-3" d="M283.54,238.74c-.13,.35-.27,.71-.44,1.08,.16-.37,.31-.73,.44-1.08Z"/>
        <path class="cls-3" d="M283.87,237.73c-.02,.07-.05,.15-.07,.22,.02-.07,.05-.15,.07-.22Z"/>
        <path class="cls-3" d="M201,225.96c.09,.38,.16,.74,.24,1.12-.08-.37-.16-.74-.24-1.12Z"/>
        <path class="cls-3" d="M270.33,283.26s.09-.03,.13-.04c1.49-11.4,4.74-24.54,11.01-39.59-6.39,15.25-9.85,28.37-11.14,39.63Z"/>
        <path class="cls-3" d="M283.1,239.82c.16-.37,.3-.72,.44-1.08,.1-.27,.18-.53,.26-.79,.02-.07,.05-.15,.07-.22,.59-2.01,.67-3.83,.34-5.5-2.12-1.05-4.28-2.04-6.47-2.99-1.75,2-6.19,2.91-8.7,1.79,2.51,1.12,6.94,.21,8.7-1.79-13.85-6.01-29.09-10.1-44.76-13.37,5.98,6.18,7.94,14.22-1.55,19.47-13.75,7.61-25.44-5.23-27.03-16.04-.49-.42-.94-.74-1.35-.97l-2.98,3.72c.32,1.32,.63,2.62,.92,3.91,.09,.38,.16,.74,.24,1.12,.03,.12,.05,.23,.08,.35,2.82,3.36,6.6,8.02,4.05,5.98,2.97,5.45,4.07,14.89,4.47,21.51,7.11,8.69,16.03,16.35,25.08,22.89,8.04,5.28,15.91,7.3,23.43,6.95,3.91,.18,7.91-.28,11.98-1.51,1.29-11.27,4.75-24.38,11.14-39.63,.52-1.26,1.06-2.52,1.63-3.8Zm-28.7,26.2c2.92-.97,6.17,0,8.77,1.95-2.6-1.95-5.85-2.92-8.77-1.95Zm20.67-16.25s-.03,.05-.04,.08c.5,1.38,1.17,3.29-.1,4.81-2.67,3.2-6.71,4.14-12.57,3.25-9.31-1.4-14.37-8.07-16.81-12.18-1.69-2.84-2.96-6.8-2.96-6.8,0,0,10.79,3.42,17.93,2.09,1.72-.32,3.82,.69,5.15,2.01,1.86-1.2,3.45-1.88,6.02-.78,3.69,1.58,8.24,1.83,8.24,1.83,0,0-.07,.03-.19,.09,.06-.01,.13-.02,.19-.04,0,0-3.71,2.62-4.87,5.63Z"/>
        <path class="cls-8" d="M325.29,365c5.82-7.67,11.17-11.83,11.17-11.83,.31,0,.62,0,.93,0-.02-.02-.04-.03-.06-.05,0,0-10.59-1.22-18.68-2.64,3.1,1.01,5.42,6.43,6.64,14.51Z"/>
        <path class="cls-8" d="M172.64,414.21c-.18,1.84-.34,3.63-.5,5.4h21.99c-13.18-26.63-18.93-53.77-20.93-58.12-4.68-10.16-4.09-16.67-4.09-16.67-7.84,.84-14.84,1.79-21.01,2.93,.11,.09,32.58,25.45,24.53,66.45Z"/>
        <path class="cls-8" d="M325.29,365c.6,3.99,.94,8.61,.98,13.67,5.93-9.85,14.43-12.44,14.43-12.44,2.78-.3,5.39-.32,7.87-.1-5.15-8.86-9.48-11.47-11.18-12.95-.31,0-.61-.01-.93,0,0,0-5.34,4.16-11.17,11.83Z"/>
        <path class="cls-8" d="M321.95,414.88c-.38,1.58-.8,3.16-1.24,4.73h2.17c-.23-1.02-.44-2.01-.62-2.93-.12-.62-.21-1.2-.32-1.81Z"/>
        <path class="cls-8" d="M321.95,414.88c.11,.6,.2,1.19,.32,1.81,.18,.92,.39,1.9,.62,2.93h42.34c-5.09-28.37-11.31-44.3-16.66-53.49-2.48-.21-5.09-.2-7.87,.1,0,0-8.5,2.6-14.43,12.44,.07,10.81-1.25,23.57-4.32,36.21Z"/>
        <path class="cls-8" d="M173.2,361.5c2,4.35,7.75,31.48,20.93,58.12h117.79c-4.81-24.45,4.8-43.33,13.37-54.62-1.23-8.08-3.54-13.51-6.64-14.51-.36-.06-.71-.13-1.06-.19-5.06-.93,12.32,59.26-50.17,59.26s-98.3-64.72-98.3-64.72c0,0-.6,6.51,4.09,16.67Z"/>
        <path class="cls-8" d="M321.95,414.88c-3.08-17.41-.11-28.85,4.32-36.21-.03-5.06-.37-9.69-.98-13.67-8.57,11.28-18.17,30.17-13.37,54.62h8.79c.44-1.57,.85-3.15,1.24-4.73Z"/>
        <path class="cls-8" d="M321.95,414.88c3.07-12.64,4.39-25.4,4.32-36.21-4.43,7.36-7.4,18.8-4.32,36.21Z"/>
        <path class="cls-12" d="M171.46,419.62h.68c.16-1.77,.32-3.57,.5-5.4-.32,1.61-.72,3.43-1.18,5.4Z"/>
        <path class="cls-11" d="M115.44,370.39c-.04-2.15,.15-3.88,.6-5.2,3.02-9.01,13.86-14.05,32.08-17.42,0,0,0,0,0,0-41.2-.42-51.91,38.16-57.92,71.85h4.53c3.85-19.52,9.74-38.28,20.73-49.23Z"/>
        <path class="cls-11" d="M116.04,365.19c-.45,1.33-.63,3.06-.6,5.2,7.08-7.05,16.28-10.88,28.42-9.56,0,0,25.45,7.79,18.96,47.46,5.66,3.42,9.81,5.92,9.82,5.93,8.06-41-24.42-66.36-24.53-66.45-18.21,3.37-29.06,8.41-32.08,17.42Z"/>
        <path class="cls-11" d="M162.82,408.29c-.16,.99-.33,1.97-.53,3-.47,2.41-1.11,5.2-1.88,8.33h11.04c.46-1.97,.86-3.79,1.18-5.4,0,0-4.15-2.51-9.82-5.93Z"/>
        <path class="cls-11" d="M124.14,416.37c-.24-1.1-.48-2.18-.71-3.24-.07-.32-.14-.65-.21-.96-.07-.34-.15-.67-.22-1-4.4-19.9-7.42-33.07-7.55-40.78-11,10.95-16.88,29.71-20.73,49.23h30.14c-.21-.97-.42-1.93-.63-2.87-.03-.13-.06-.25-.08-.38Z"/>
        <path class="cls-11" d="M117.68,386.53s9.2,1.33,13.67,2.76c0,0,19.26,11.63,31.47,19,6.49-39.67-18.96-47.46-18.96-47.46-12.14-1.31-21.34,2.51-28.42,9.56,.13,7.71,3.15,20.88,7.55,40.78-2.16-9.78-4-17.96-5.31-24.64Z"/>
        <path class="cls-11" d="M124.22,416.75c-.03-.13-.06-.25-.08-.38,.03,.13,.06,.25,.08,.38Z"/>
        <path class="cls-11" d="M123.43,413.13c-.07-.32-.14-.64-.21-.96,.07,.32,.14,.64,.21,.96Z"/>
        <path class="cls-11" d="M124.22,416.75c.21,.94,.42,1.91,.63,2.87h0c-.21-.97-.42-1.93-.63-2.87Z"/>
        <path class="cls-11" d="M124.14,416.37c-.24-1.1-.48-2.18-.71-3.24,.23,1.06,.47,2.14,.71,3.24Z"/>
        <path class="cls-11" d="M123.21,412.17c-.07-.34-.15-.67-.22-1,.07,.34,.15,.66,.22,1Z"/>
        <path class="cls-11" d="M117.68,386.53c1.32,6.68,3.15,14.86,5.31,24.64,.07,.33,.15,.66,.22,1,.07,.32,.14,.64,.21,.96,.23,1.06,.47,2.14,.71,3.24,.03,.13,.06,.25,.08,.38,.21,.94,.42,1.9,.63,2.87h35.56c.78-3.13,1.41-5.92,1.88-8.33,.2-1.03,.37-2.01,.53-3-12.21-7.37-31.47-19-31.47-19-4.47-1.43-13.67-2.78-13.67-2.76Z"/>
        <path class="cls-13" d="M242.59,238.94s1.26,3.96,2.96,6.8c2.44,4.11,7.5,10.77,16.81,12.18,5.86,.88,9.9-.05,12.57-3.25,1.27-1.53,.59-3.43,.1-4.81-3.51,8.68-28.73,.15-32.44-10.91Z"/>
        <path class="cls-13" d="M279.75,244.18c.12-.06,.19-.09,.19-.09,0,0-4.55-.25-8.24-1.83-2.57-1.1-4.16-.42-6.02,.78-1.33-1.33-3.44-2.33-5.15-2.01-7.15,1.33-17.93-2.09-17.93-2.09,0,0,18.54,9.14,37.15,5.24Z"/>
        <path class="cls-2" d="M210.44,209.1c5.02,1.26,11.46,2.25,18.43,3.25-6.43-4.59-14.8-7.02-20.11-4.16-.33,.18-.63,.37-.92,.58,.11,1.12,.22,2.17,.32,3.17l2.27-2.84Z"/>
        <path class="cls-2" d="M208.17,211.94s0,0,0,0l.49-.62c8.13,1.4,16.28,2.86,24.32,4.54-1.22-1.26-2.61-2.45-4.11-3.52-6.97-.99-13.4-1.99-18.43-3.25l-2.27,2.84Z"/>
        <path class="cls-2" d="M208.17,211.95c.88,8.64,1.23,12.67-2.23,8.85-.55-.61-1.06-1.1-1.53-1.5,1.59,10.8,13.28,23.65,27.03,16.04,9.48-5.25,7.53-13.29,1.55-19.47-8.04-1.68-16.19-3.14-24.32-4.54l-.49,.62Z"/>
        <path class="cls-2" d="M301.6,235.34c6.41,3.55,12.35,2.64,17.05-.42,.6-1.77,1.15-3.57,1.56-5.4,.86-3.86,1.47-7,1.92-9.84-.2-4.34-.67-8.67-1.55-12.59-13.78-1.71-36.98,18.29-18.97,28.26Z"/>
        <path class="cls-4" d="M274.72,248.23c-.17,.29,.05,.88,.31,1.62,.01-.03,.03-.05,.04-.08,1.16-3.01,4.87-5.63,4.87-5.63-.06,.01-.13,.02-.19,.04-.78,.38-3.76,1.93-5.03,4.05Z"/>
        <path class="cls-4" d="M274.72,248.23c1.27-2.12,4.25-3.67,5.03-4.05-18.61,3.9-37.15-5.24-37.15-5.24,3.71,11.06,28.92,19.59,32.44,10.91-.27-.74-.48-1.33-.31-1.62Z"/>
        <path class="cls-5" d="M335.39,107.9c.95-.39,1.91-.82,2.87-1.29,7.91-3.94,17.5-9.16,21.37-17.57,1.05-2.28,3-6.24,3.79-10.72,.24-3.65-.54-6.92-3.06-9.22,2.53,2.3,3.31,5.57,3.06,9.22,.76-4.32,.45-9.12-2.74-13.41-2.38-2.74-5.53-5.19-9.61-7.08-2.54-1.11-5.55-2.09-9.1-2.89-1.68-.38-4.72-11.83-17.55-11.52-1.1,.03-2.16,.08-3.2,.16,10.28,.55,19.94,6.6,19.94,18.83,0-12.23-9.67-18.28-19.94-18.83-10.15,.74-17.03,4.03-19.62,15.05-1.02,4.33-1.91,9.09-2.63,13.52,3.21,1.65,6.28,3.53,9.17,5.66,11.78,8.67,20.78,18.78,27.24,30.1Z"/>
        <path class="cls-5" d="M360.68,64.91c-1.97-2.64-5.03-5.07-9.61-7.08,4.08,1.89,7.23,4.34,9.61,7.08Z"/>
        <path class="cls-6" d="M205.31,254.91c-.05-.71-.09-1.43-.15-2.15-.03-.43-.08-.86-.11-1.3-.06-.7-.12-1.4-.19-2.11-.04-.45-.09-.9-.14-1.35,0-.01,0-.02,0-.04-4.02-6.11-7.05-12.66-8.6-19.61-.34-1.54-.64-2.96-.91-4.3-10.1,16.86-26.14-14.08-24.14-29.99,1.94-15.46,13.25-13.62,20.86-6.29-1.4-19.47-5.71-29.57,3.28-50.75,14.42-34.02,42.61-38.25,42.61-38.25,5.73-1.32,11.47-2.35,17.14-3.01v-.64c1.14,.07,2.27,.2,3.41,.3,1.13-.1,2.27-.23,3.4-.3v.64c5.68,.66,11.42,1.69,17.14,3.01,0,0,28.18,4.23,42.62,38.25,9.19,21.69,4.46,31.75,3.18,52.17-.99,15.81-.76,21.34-2.52,31.36,.51,13.35-1.41,26.35-1.41,26.35,9.94-9.83,16.64-23.21,19.07-43.37,1.24-10.28,7.76-29.36,8.14-36.57,1.15-22-2.8-41.93-12.58-59.07-4.86,1.99-9.33,2.83-11.02,2.83,0,0-14.95-3.45-20.99-9.2-6.04-5.75-6.32-13.53-6.32-13.53,0-1.97,.72-8.45,1.92-15.85-29.79-15.3-71.66-10.85-94.62-2.87,1.49,8.55,2.4,16.5,2.4,18.72,0,0-.28,7.78-6.32,13.53-6.04,5.75-21,9.2-21,9.2-2,0-7.99-1.18-13.88-4.12,0,0,0,0,0,0-7.59,15.72-12.48,39-8.07,75.25,3.78,30.98,26.02,56.39,48.01,76.43-.03-.73-.06-1.45-.1-2.19-.02-.39-.05-.79-.08-1.19Z"/>
        <path class="cls-6" d="M205.38,256.1c.04,.74,.07,1.46,.1,2.19,0,0,0,0,0,0-.03-.73-.06-1.45-.11-2.19Z"/>
        <path class="cls-6" d="M205.31,254.91c-.05-.71-.09-1.43-.15-2.15,.06,.72,.1,1.44,.15,2.15Z"/>
        <path class="cls-6" d="M204.7,247.97s0,.02,0,.04c0-.01,0-.02,0-.04,0,0,0,0,0,0Z"/>
        <path class="cls-6" d="M205.04,251.46c-.06-.7-.12-1.4-.19-2.11,.07,.71,.13,1.41,.19,2.11Z"/>
        <path class="cls-6" d="M205.38,256.1c-.02-.39-.05-.79-.08-1.19,.03,.4,.06,.8,.08,1.19Z"/>
        <path class="cls-6" d="M205.16,252.76c-.03-.43-.08-.86-.11-1.3,.04,.43,.08,.87,.11,1.3Z"/>
        <path class="cls-6" d="M204.85,249.35c-.04-.45-.09-.9-.14-1.35,.05,.45,.1,.9,.14,1.35Z"/>
        <path class="cls-6" d="M204.71,248c.05,.45,.1,.9,.14,1.35,.07,.71,.13,1.41,.19,2.11,.04,.43,.08,.87,.11,1.3,.06,.72,.1,1.44,.15,2.15,.03,.4,.06,.8,.08,1.19,.04,.74,.07,1.46,.11,2.19,1.53,1.4,3.06,2.77,4.58,4.11,0,0,.03-3.14-.23-7.48-1.84-2.25-3.57-4.57-5.14-6.95,0,.01,0,.02,0,.04Z"/>
        <path class="cls-6" d="M321.51,137.03c-14.44-34.02-42.62-38.25-42.62-38.25-5.72-1.32-11.46-2.35-17.14-3.01v-.64c-1.13,.07-2.27,.2-3.4,.3-1.14-.1-2.27-.23-3.41-.3v.64c-5.66,.66-11.41,1.69-17.14,3.01,0,0-28.18,4.23-42.61,38.25-8.99,21.18-4.67,31.28-3.28,50.75,3.11,2.99,5.6,6.88,6.59,10.9l.21,16.51c-1.04,3.82-2.23,6.73-3.52,8.88,.27,1.34,.57,2.76,.91,4.3,1.54,6.95,4.57,13.5,8.6,19.61-.07-.69-.15-1.39-.23-2.09-.05-.46-.11-.92-.17-1.38-.09-.72-.19-1.44-.29-2.17-.07-.47-.13-.93-.2-1.4-.11-.74-.22-1.48-.34-2.23-.08-.47-.15-.94-.23-1.41-.13-.76-.26-1.53-.4-2.31-.08-.46-.17-.93-.25-1.4-.15-.81-.31-1.63-.48-2.45-.09-.44-.17-.88-.27-1.32-.16-.79-.34-1.58-.51-2.38-1.42-1.69-2.6-3.05-2.6-3.05,0,0-.22-8.56,4.33-6.04l1.16-1.45c0-3.35,1.12-6.3,3.63-8.11-.69-6.93-1.45-16.02-1.09-26.13,.48-13.68,22.08-19.77,27.02-43.41,1.12-5.35,20.7,9.83,52.23,10.94,18.02,.63,21.26,14.58,24.06,27.9,.61,.22,1.22,.45,1.85,.67-.63-.22-1.25-.45-1.85-.67,1.5,7.12,2.86,14.05,6.29,18.69,1.96,2.66,3.31,6.27,4.22,10.32,.98,.12,1.91,.35,2.78,.7-.25,4.14-.57,7.68-1.23,11.89,.01,.3,.03,.59,.04,.89,1.76-10.01,1.53-15.55,2.52-31.36,1.27-20.42,6.01-30.48-3.18-52.17Z"/>
        <path class="cls-6" d="M203.23,237.28c-.13-.76-.26-1.53-.4-2.31,.14,.77,.28,1.54,.4,2.31Z"/>
        <polygon class="cls-6" points="204.22 216.88 204.22 216.88 203.05 218.33 203.05 218.33 204.22 216.88"/>
        <path class="cls-6" d="M203.81,240.92c-.11-.74-.22-1.48-.34-2.23,.12,.75,.23,1.49,.34,2.23Z"/>
        <path class="cls-6" d="M202.57,233.57c-.15-.81-.31-1.63-.48-2.45,.16,.82,.33,1.64,.48,2.45Z"/>
        <path class="cls-6" d="M204.3,244.49c-.09-.72-.19-1.44-.29-2.17,.1,.73,.2,1.45,.29,2.17Z"/>
        <path class="cls-6" d="M201.32,227.43c.17,.79,.35,1.59,.51,2.38-.16-.79-.34-1.58-.51-2.38,0,0,0,0,0,0Z"/>
        <path class="cls-6" d="M204.47,245.88c.08,.7,.16,1.4,.23,2.09,0,0,0,0,0,0-.07-.69-.15-1.39-.23-2.09Z"/>
        <path class="cls-6" d="M202.1,231.13c-.09-.44-.17-.88-.27-1.32,.09,.44,.18,.88,.27,1.32Z"/>
        <path class="cls-6" d="M204.01,242.32c-.07-.47-.13-.93-.2-1.4,.07,.47,.14,.94,.2,1.4Z"/>
        <path class="cls-6" d="M204.47,245.88c-.05-.46-.11-.92-.17-1.38,.06,.46,.12,.92,.17,1.38Z"/>
        <path class="cls-6" d="M202.83,234.97c-.08-.46-.17-.93-.25-1.4,.09,.47,.17,.93,.25,1.4Z"/>
        <path class="cls-6" d="M203.46,238.69c-.08-.47-.15-.94-.23-1.41,.08,.47,.15,.94,.23,1.41Z"/>
        <path class="cls-6" d="M201.32,227.43c.17,.79,.35,1.59,.51,2.38,.09,.44,.18,.88,.27,1.32,.16,.82,.33,1.64,.48,2.45,.09,.47,.17,.93,.25,1.4,.14,.77,.28,1.54,.4,2.31,.08,.47,.15,.94,.23,1.41,.12,.75,.23,1.49,.34,2.23,.07,.47,.14,.94,.2,1.4,.1,.73,.2,1.45,.29,2.17,.06,.46,.12,.92,.17,1.38,.08,.7,.16,1.4,.23,2.09,1.57,2.39,3.3,4.7,5.14,6.95-.4-6.62-1.5-16.06-4.47-21.51,2.55,2.03-1.23-2.63-4.05-5.98Z"/>
        <path class="cls-6" d="M203.05,218.33c.41,.23,.86,.55,1.35,.97-.12-.82-.19-1.63-.19-2.42l-1.16,1.45Z"/>
        <path class="cls-6" d="M207.85,208.77c-2.51,1.81-3.63,4.76-3.63,8.11l3.95-4.94c-.1-1-.21-2.06-.32-3.17Z"/>
        <polygon class="cls-6" points="208.17 211.95 208.17 211.94 204.22 216.88 204.22 216.88 208.17 211.95"/>
        <path class="cls-6" d="M205.93,220.8c3.46,3.81,3.11-.22,2.23-8.85l-3.95,4.94c0,.79,.07,1.6,.19,2.42,.47,.4,.98,.89,1.53,1.5Z"/>
        <path class="cls-6" d="M323.36,207.78c-.87-.35-1.8-.58-2.78-.7,.88,3.92,1.35,8.25,1.55,12.59,.67-4.21,.99-7.74,1.23-11.89Z"/>
        <path class="cls-6" d="M303.38,101.53c6.04,5.75,20.99,9.2,20.99,9.2,1.69,0,6.15-.83,11.02-2.83-6.46-11.32-15.46-21.43-27.24-30.1-2.89-2.13-5.96-4.01-9.17-5.66-1.2,7.4-1.92,13.88-1.92,15.85,0,0,.28,7.78,6.32,13.53Z"/>
        <path class="cls-3" d="M191.92,187.78c-7.62-7.33-18.92-9.17-20.86,6.29-2,15.91,14.04,46.85,24.14,29.99-2.49-12.42-2.08-17.3-3.18-34.86-.03-.48-.06-.95-.1-1.42Z"/>
        <path class="cls-3" d="M198.51,198.68c-.99-4.01-3.48-7.91-6.59-10.9,.03,.47,.07,.94,.1,1.42,1.1,17.56,.68,22.44,3.18,34.86,1.29-2.14,2.48-5.06,3.52-8.88l-.21-16.51Z"/>
        <path class="cls-9" d="M189.82,76.77c2.71-2.53,7.81-5.17,14.54-7.5-.62-3.57-1.34-7.25-2.15-10.65-2.58-11.01-9.47-14.31-19.62-15.05-10.28,.55-19.94,6.6-19.94,18.83,0-12.23,9.67-18.28,19.94-18.83-1.04-.07-2.09-.13-3.2-.16-12.83-.31-15.86,11.14-17.54,11.52-3.57,.8-6.58,1.79-9.13,2.9-4.06,1.88-7.2,4.32-9.57,7.04-3.21,4.29-3.52,9.1-2.76,13.42-.24-3.65,.54-6.92,3.06-9.21-2.52,2.29-3.3,5.56-3.06,9.21,.79,4.49,2.74,8.45,3.79,10.73,3.88,8.41,13.45,13.63,21.37,17.57,7.58-15.7,17.86-23.85,24.27-29.83Z"/>
        <path class="cls-9" d="M152.72,57.84c-4.56,1.99-7.61,4.42-9.57,7.04,2.37-2.72,5.52-5.16,9.57-7.04Z"/>
        <path class="cls-9" d="M179.44,110.73s14.96-3.45,21-9.2c6.04-5.75,6.32-13.53,6.32-13.53,0-2.22-.91-10.17-2.4-18.72-6.72,2.33-11.83,4.97-14.54,7.5-6.4,5.98-16.68,14.14-24.27,29.83,0,0,0,0,0,0,5.89,2.94,11.87,4.12,13.88,4.12Z"/>
      </g>
    </g>
  </g>
</svg>